<?xml version="1.0" encoding="utf-8"?>
<!-- Generator: Adobe Illustrator 15.0.2, SVG Export Plug-In  -->
<!DOCTYPE svg PUBLIC "-//W3C//DTD SVG 1.1//EN" "http://www.w3.org/Graphics/SVG/1.1/DTD/svg11.dtd" [
	<!ENTITY ns_flows "http://ns.adobe.com/Flows/1.0/">
]>
<svg version="1.1"
	 xmlns="http://www.w3.org/2000/svg" xmlns:xlink="http://www.w3.org/1999/xlink" xmlns:a="http://ns.adobe.com/AdobeSVGViewerExtensions/3.0/"
	 x="0px" y="0px" width="63px" height="79px" viewBox="-7.672 -6.075 63 79"
	 overflow="visible" enable-background="new -7.672 -6.075 63 79" xml:space="preserve">
<defs>
</defs>
<path fill-rule="evenodd" clip-rule="evenodd" fill="#39C2D7" d="M37.369,18.76c1.908,5.519-4.796,12.467-5.84,14.406
	c-0.515-0.005-2.17-11.438-1.947-12.849C30.566,14.062,36.745,16.954,37.369,18.76z"/>
<path fill-rule="evenodd" clip-rule="evenodd" fill="#39C2D7" d="M40.874,23.822c3.34-1.445,6.057,0.894,7.009,3.115
	c1.718,6.38-4.966,10.327-15.965,6.62C33.548,30.255,39.817,24.064,40.874,23.822z"/>
<path fill-rule="evenodd" clip-rule="evenodd" fill="#39C2D7" d="M12.148,51.153c-12.844,7.536-16.977-20.925-5.15-23.048
	c7.023-1.261,17.697,4.18,23.362,5.452C30.36,33.815,20.869,46.037,12.148,51.153z"/>
<path fill-rule="evenodd" clip-rule="evenodd" fill="#39C2D7" d="M41.652,54.583C34.312,56.098,33.857,41,31.529,34.724
	C45.052,38.109,52.125,52.42,41.652,54.583z"/>
<path fill-rule="evenodd" clip-rule="evenodd" fill="#39C2D7" d="M30.969,34.281c0.423,0.097,5.967,30.104-3.334,31.594
	c-3.517,0.563-6.366-1.158-7.787-3.116C11.723,51.576,31.056,34.583,30.969,34.281z"/>
<path fill-rule="evenodd" clip-rule="evenodd" fill="#39C2D7" d="M30.36,32.778c-8.05-4.069-17.997-4.203-23.362-11.292
	c-7.272-9.608,3.305-28.63,14.018-18.691C27.16,8.497,30.421,32.319,30.36,32.778z"/>
</svg>
