<?xml version="1.0" encoding="utf-8"?>
<!-- Generator: Adobe Illustrator 17.0.0, SVG Export Plug-In . SVG Version: 6.00 Build 0)  -->
<!DOCTYPE svg PUBLIC "-//W3C//DTD SVG 1.1//EN" "http://www.w3.org/Graphics/SVG/1.1/DTD/svg11.dtd">
<svg version="1.1" id="Layer_1" xmlns="http://www.w3.org/2000/svg" xmlns:xlink="http://www.w3.org/1999/xlink" x="0px" y="0px"
	 width="32px" height="32px" viewBox="0 0 32 32" enable-background="new 0 0 32 32" xml:space="preserve">
<g>
	<path d="M16.22,0.064c-8.775,0-15.913,7.139-15.913,15.913c0,8.775,7.138,15.913,15.913,15.913c8.776,0,15.914-7.139,15.914-15.913
		C32.134,7.203,24.996,0.064,16.22,0.064z M16.22,29.358c-7.379,0-13.38-6.002-13.38-13.381c0-7.377,6.001-13.38,13.38-13.38
		S29.601,8.6,29.601,15.977C29.601,23.356,23.599,29.358,16.22,29.358z"/>
	<circle cx="21.639" cy="17.952" r="3.874"/>
	<circle cx="13.006" cy="7.932" r="2.877"/>
	<circle cx="9.914" cy="17.557" r="3.479"/>
	<circle cx="16.021" cy="24.397" r="1.466"/>
	<circle cx="22.248" cy="9.962" r="1.583"/>
	<circle cx="16.485" cy="13.949" r="1.341"/>
</g>
</svg>
