<svg xmlns="http://www.w3.org/2000/svg" xmlns:xlink="http://www.w3.org/1999/xlink" id="Layer_1" width="64" height="64" x="0" y="0" enable-background="new 0 0 64 64" version="1.1" viewBox="0 0 64 64" xml:space="preserve"><g><path d="M61.804,16.719c-1.099-0.246-2.272,0.508-2.5,1.532c-0.064,0.242-0.295,1.036-0.848,2.104L43.64,5.539 c1.217-0.62,2.067-0.817,2.09-0.823c2.706-0.635,1.741-4.724-0.969-4.083c-0.168,0.041-16.598,4.33-13.898,27.782 c-1.079-0.07-2.154-0.104-3.209-0.104c-19.156,0-26.486,12.039-26.787,12.546c-1.433,2.416,2.196,4.448,3.6,2.154 c0.111-0.183,0.686-1.087,1.842-2.31l16.998,17.005c-1.211,1.145-2.118,1.724-2.29,1.829c-2.384,1.421-0.255,5,2.133,3.614 c0.571-0.342,13.894-8.52,12.443-30.006c17.179,1.994,26.049-6.73,27.789-13.915C63.644,18.089,62.916,16.955,61.804,16.719z M31.093,41.935l-9.017-9.019c2.877-0.435,6.082-0.522,9.274-0.258C31.621,35.9,31.534,39.016,31.093,41.935z M17.068,34.03 l12.853,12.928c-1.287,3.809-2.849,6.368-3.949,7.651L9.418,37.996C12.279,35.675,15.989,34.514,17.068,34.03z M34.876,20.291 l8.799,8.831c-2.592,0.248-5.493,0.161-8.532-0.248C34.724,25.782,34.633,22.897,34.876,20.291z M48.742,28.113L35.831,15.308 c0.941-3.039,2.291-5.15,4.091-7.048L55.81,23.915l-0.169,0.21C53.113,26.573,49.821,27.93,48.742,28.113z"/></g></svg>