<svg xmlns="http://www.w3.org/2000/svg" xmlns:xlink="http://www.w3.org/1999/xlink" id="Layer_1" width="96" height="96" x="0" y="0" enable-background="new 0 0 96 96" version="1.1" viewBox="0 0 96 96" xml:space="preserve"><g><polygon points="47.82 94.086 57.102 74.647 38.898 74.625"/><path d="M85.721,1.914H10.279c-0.831,0-1.567,0.376-2.077,0.956v0.001C7.774,3.356,7.506,3.988,7.506,4.69v62.126 c0,1.529,1.243,2.772,2.773,2.772h75.441c1.53,0,2.773-1.243,2.773-2.772V4.69C88.494,3.159,87.251,1.914,85.721,1.914z M32.79,63.069H13.979V52.666H32.79V63.069z M32.79,46.287H13.979V35.352H32.79V46.287z M32.79,28.973H13.979V18.691H32.79V28.973z M57.371,63.069H39.169V52.666h18.202V63.069z M57.371,46.287H39.169V35.352h18.202V46.287z M57.371,28.973H39.169V18.691h18.202 V28.973z M82.227,63.069H63.75V52.666h18.477V63.069z M82.227,46.287H63.75V35.352h18.477V46.287z M82.227,28.973H63.75V18.691 h18.477V28.973z"/></g></svg>