<?xml version="1.0" encoding="utf-8"?>
<!-- Generator: Adobe Illustrator 17.0.0, SVG Export Plug-In . SVG Version: 6.00 Build 0)  -->
<!DOCTYPE svg PUBLIC "-//W3C//DTD SVG 1.1//EN" "http://www.w3.org/Graphics/SVG/1.1/DTD/svg11.dtd">
<svg version="1.1" id="Layer_1" xmlns="http://www.w3.org/2000/svg" xmlns:xlink="http://www.w3.org/1999/xlink" x="0px" y="0px"
	 width="32px" height="32px" viewBox="0 0 32 32" enable-background="new 0 0 32 32" xml:space="preserve">
<path d="M27.239,10.839c0-5.978-4.867-10.846-10.846-10.846c-5.981,0-10.849,4.867-10.849,10.846c0,5.2,3.675,9.557,8.566,10.604
	v2.524h-2.413c-1.162,0-2.104,0.95-2.104,2.11c0,1.162,0.942,2.111,2.104,2.111h2.413v1.651c0,1.162,0.95,2.104,2.112,2.104
	c1.162,0,2.111-0.941,2.111-2.104v-1.651h2.534c1.162,0,2.103-0.949,2.103-2.111c0-1.16-0.941-2.11-2.103-2.11h-2.534v-2.454
	C23.359,20.598,27.239,16.158,27.239,10.839z M9.753,10.839c0-3.661,2.978-6.637,6.637-6.637c3.661,0,6.637,2.976,6.637,6.637
	c0,3.66-2.976,6.638-6.637,6.638C12.73,17.477,9.753,14.499,9.753,10.839z"/>
</svg>
