<?xml version="1.0" encoding="utf-8"?>
<!-- Generator: Adobe Illustrator 17.0.0, SVG Export Plug-In . SVG Version: 6.00 Build 0)  -->
<!DOCTYPE svg PUBLIC "-//W3C//DTD SVG 1.1//EN" "http://www.w3.org/Graphics/SVG/1.1/DTD/svg11.dtd">
<svg version="1.1" id="Layer_1" xmlns="http://www.w3.org/2000/svg" xmlns:xlink="http://www.w3.org/1999/xlink" x="0px" y="0px"
	 width="32px" height="32px" viewBox="0 0 32 32" enable-background="new 0 0 32 32" xml:space="preserve">
<path d="M29.397,0.504c-0.113-0.007-7.904,0.081-7.904,0.081c-1.388,0.017-2.5,1.373-2.481,2.763
	c0.017,1.377,1.141,2.698,2.515,2.698c0.009,0,0.021,0,0.033,0l1.452-0.236l-2.647,2.542c-2.153-1.501-4.704-2.371-7.383-2.371
	c-3.463,0-6.718,1.322-9.167,3.771c-5.055,5.055-5.055,13.267,0,18.322c2.449,2.448,5.704,3.79,9.167,3.79
	c3.463,0,6.717-1.354,9.166-3.801c4.396-4.395,5.092-11.185,1.847-16.207l2.961-2.83v1.756c0,1.391,1.121,2.517,2.51,2.517
	c1.388,0,2.511-1.126,2.511-2.517V2.997C31.976,2.326,31.868,0.656,29.397,0.504z M18.59,24.502
	c-1.496,1.498-3.488,2.325-5.608,2.325c-2.12,0-4.112-0.827-5.609-2.325c-3.095-3.092-3.095-8.127,0-11.221
	c1.497-1.498,3.489-2.325,5.609-2.325c2.12,0,4.112,0.827,5.608,2.325C21.685,16.375,21.685,21.41,18.59,24.502z"/>
</svg>
