<?xml version="1.0" encoding="utf-8"?>
<!-- Generator: Adobe Illustrator 16.0.0, SVG Export Plug-In . SVG Version: 6.00 Build 0)  -->
<!DOCTYPE svg PUBLIC "-//W3C//DTD SVG 1.1//EN" "http://www.w3.org/Graphics/SVG/1.1/DTD/svg11.dtd">
<svg version="1.1" id="Layer_1" xmlns="http://www.w3.org/2000/svg" xmlns:xlink="http://www.w3.org/1999/xlink" x="0px" y="0px"
	 width="96px" height="96px" viewBox="0 0 96 96" enable-background="new 0 0 96 96" xml:space="preserve">
<g>
	<path d="M75.046,13.093H64.949v-1.231c0-1.465-1.192-2.656-2.656-2.656h-6.958V4.4c0-1.465-1.191-2.656-2.656-2.656h-9.358
		c-1.464,0-2.656,1.191-2.656,2.656v4.805h-6.958c-1.464,0-2.656,1.191-2.656,2.656v1.231H20.954c-2.088,0-3.787,1.699-3.787,3.787
		v73.59c0,2.087,1.699,3.786,3.787,3.786h54.093c2.088,0,3.787-1.699,3.787-3.786V16.88C78.833,14.792,77.134,13.093,75.046,13.093z
		 M44.239,4.969c0-0.156,0.126-0.281,0.282-0.281h6.957c0.156,0,0.283,0.125,0.283,0.281v3.57h-7.521V4.969z M73.965,88.666
		c0,0.293-0.238,0.53-0.531,0.53H22.566c-0.293,0-0.531-0.237-0.531-0.53V19.224c0-0.292,0.238-0.53,0.531-0.53h8.817v4.05
		c0,1.436,1.168,2.604,2.604,2.604h28.024c1.436,0,2.604-1.169,2.604-2.604v-4.05h8.817c0.293,0,0.531,0.238,0.531,0.53V88.666z"/>
	<path d="M47.975,59.519L47.975,59.519c0.004,0.001,0.009,0.001,0.014,0.001c0.001,0,0.005,0,0.008,0c0,0,0.002,0,0.003,0
		s0.003,0,0.003,0c0.003,0,0.007,0,0.008,0c0.004,0,0.009,0,0.014,0v-0.001c5.271,0.08,8.475-4.534,8.558-12.14
		c0.054-5.277-3.219-8.294-8.548-8.437V38.94c-0.008,0-0.015,0-0.023,0c-0.004,0-0.008,0-0.011,0s-0.008,0-0.011,0
		c-0.008,0-0.015,0-0.022,0v0.002c-5.33,0.143-8.603,3.159-8.549,8.437C39.5,54.984,42.704,59.599,47.975,59.519z"/>
	<path d="M60.093,64.401c-0.398-0.667-0.992-1.142-1.661-1.417l-4.521-2.082l-2.173-1.832l-3.733,3.713l-3.742-3.713l-2.173,1.832
		l-4.521,2.082c-0.669,0.275-1.263,0.75-1.661,1.417l-6.598,11.03c-0.323,0.541-0.484,1.148-0.488,1.757H67.18
		c-0.004-0.608-0.166-1.216-0.488-1.757L60.093,64.401z"/>
</g>
</svg>
