<?xml version="1.0" encoding="iso-8859-1"?>
<!-- Generator: Adobe Illustrator 17.1.0, SVG Export Plug-In . SVG Version: 6.00 Build 0)  -->
<!DOCTYPE svg PUBLIC "-//W3C//DTD SVG 1.1//EN" "http://www.w3.org/Graphics/SVG/1.1/DTD/svg11.dtd">
<svg version="1.1" id="Layer_1" xmlns="http://www.w3.org/2000/svg" xmlns:xlink="http://www.w3.org/1999/xlink" x="0px" y="0px"
	 viewBox="0 0 64 64" style="enable-background:new 0 0 64 64;" xml:space="preserve">
<path d="M53.625,18.5c-2.792,0-3.167,3-3.167,3.625s-0.833-4.875-5.875-3.625c0,0-3.833,1.167-3.833,4.375l-0.917-0.542
	c0,0-5.5-5.083-15.833,1.25s-7.333,15.583-7.167,16.167c0.167,0.583-1.5,5-6.917,2.75C4.5,40.25,3.167,43.25,2,44.583
	s4-2.5,8.333,0.583c4.333,3.083,7.5-0.75,7.667-1.417c0.167-0.667,6.625,5.833,10.25,6.625c3.625,0.792,6.583,0.667,6.583-1.083
	s3.958,1,3.667-1.5s-7.042-2.083-2.917-3.208s4.875,6.266,11.333,6.258c6.458-0.008,5.417-1.342,5.167-1.925
	c-0.25-0.583,4.958,1.167,4.958-0.792c0-1.958-6.625-1.042-6.625-4.75c0-3.708,1.958-4.125,2.75-4.042
	c0.792,0.083,9.708,1.375,9.708-1.625s-4.25-9.083-6-10.833C58.292,24.667,58.875,18.5,53.625,18.5z M45.417,26.417
	c-1.519,0-2.75-1.175-2.75-2.625c0-1.45,1.231-2.625,2.75-2.625c1.519,0,2.75,1.175,2.75,2.625
	C48.167,25.241,46.935,26.417,45.417,26.417z M53.812,31.25c-0.702,0-1.271-0.569-1.271-1.271c0-0.702,0.569-1.271,1.271-1.271
	c0.702,0,1.271,0.569,1.271,1.271C55.083,30.681,54.514,31.25,53.812,31.25z"/>
</svg>
