<?xml version="1.0" encoding="utf-8"?>
<!-- Generator: Adobe Illustrator 16.0.0, SVG Export Plug-In . SVG Version: 6.00 Build 0)  -->
<!DOCTYPE svg PUBLIC "-//W3C//DTD SVG 1.1//EN" "http://www.w3.org/Graphics/SVG/1.1/DTD/svg11.dtd">
<svg version="1.1" id="Layer_1" xmlns="http://www.w3.org/2000/svg" xmlns:xlink="http://www.w3.org/1999/xlink" x="0px" y="0px"
	 width="100px" height="100px" viewBox="0 0 100 100" enable-background="new 0 0 100 100" xml:space="preserve">
<g>
	<path d="M67.572,35.052L51.956,50.668l-8.997-20.327c2.68-1.091,5.605-1.696,8.673-1.696C57.81,28.645,63.424,31.088,67.572,35.052
		z"/>
	<path d="M28.537,51.74c0-8.958,5.13-16.735,12.604-20.563l9.299,21.008L34.944,67.68C30.98,63.532,28.537,57.917,28.537,51.74z"/>
	<path d="M51.632,74.834c-5.839,0-11.175-2.183-15.245-5.769l15.952-15.952l16.619-16.619c3.587,4.07,5.769,9.406,5.769,15.245
		C74.727,64.474,64.366,74.834,51.632,74.834z"/>
</g>
</svg>
