<?xml version="1.0" encoding="utf-8"?>
<!-- Generator: Adobe Illustrator 15.0.2, SVG Export Plug-In  -->
<!DOCTYPE svg PUBLIC "-//W3C//DTD SVG 1.1//EN" "http://www.w3.org/Graphics/SVG/1.1/DTD/svg11.dtd" [
	<!ENTITY ns_flows "http://ns.adobe.com/Flows/1.0/">
]>
<svg version="1.1"
	 xmlns="http://www.w3.org/2000/svg" xmlns:xlink="http://www.w3.org/1999/xlink" xmlns:a="http://ns.adobe.com/AdobeSVGViewerExtensions/3.0/"
	 x="0px" y="0px" width="20px" height="20px" viewBox="-2.749 -2.573 20 20"
	 overflow="visible" enable-background="new -2.749 -2.573 20 20" xml:space="preserve">
<defs>
</defs>
<path fill="#414042" d="M7.252,0C3.246,0,0,3.248,0,7.252s3.246,7.25,7.252,7.25c4.003,0,7.25-3.246,7.25-7.25S11.255,0,7.252,0z
	 M11.318,6.016l-4.772,4.775c-0.071,0.07-0.189,0.07-0.262,0L3.39,7.893c-0.071-0.07-0.071-0.188,0-0.258l1.195-1.197
	c0.073-0.072,0.19-0.072,0.261,0l1.44,1.438c0.071,0.074,0.188,0.074,0.26,0l3.306-3.303c0.071-0.072,0.188-0.072,0.262,0
	l1.204,1.186C11.389,5.83,11.389,5.947,11.318,6.016z"/>
</svg>
