<?xml version="1.0" encoding="utf-8"?>
<!-- Generator: Adobe Illustrator 16.0.4, SVG Export Plug-In . SVG Version: 6.00 Build 0)  -->
<!DOCTYPE svg PUBLIC "-//W3C//DTD SVG 1.1//EN" "http://www.w3.org/Graphics/SVG/1.1/DTD/svg11.dtd">
<svg version="1.1" id="Layer_1" xmlns="http://www.w3.org/2000/svg" xmlns:xlink="http://www.w3.org/1999/xlink" x="0px" y="0px"
	 width="50px" height="50px" viewBox="0 0 50 50" enable-background="new 0 0 50 50" xml:space="preserve">
<g>
	<path d="M25.177,27.375c-0.049,0.574,0.341,3.613,0.542,4.805c0.096,0.564,0.358,1.484,0.264,1.973
		c-0.135,0.68-0.174,1.561-0.1,2.073c0.047,0.312,0.194,1.748-0.017,2.274c-0.11,0.275-0.312,1.687-0.312,1.687
		c-0.527,1.331-0.23,1.265-0.23,1.265c0.164,0.201,0.443,0.016,0.443,0.016c0.213,0.136,0.36-0.032,0.36-0.032
		c0.183,0.151,0.396-0.019,0.396-0.019c0.229,0.119,0.442-0.101,0.442-0.101c0.132,0.067,0.164-0.017,0.164-0.017
		c0.396-0.025-0.221-1.291-0.221-1.291c-0.147-1.137,0.147-1.77,0.147-1.77c0.963-2.855,1.012-3.613,0.627-4.689
		c-0.109-0.311-0.136-0.434-0.086-0.568c0.115-0.312,0.031-1.564,0.172-2.061c0.271-0.959,0.539-3.391,0.679-4.525
		c0.187-1.529-0.665-3.578-0.665-3.578c-0.186-0.834,0.087-3.805,0.087-3.805c0.382,0.594,0.368,1.643,0.368,1.643
		c-0.061,1.1,0.888,2.781,0.888,2.781c0.456,0.695,0.629,1.354,0.629,1.403c0,0.2-0.044,0.684-0.044,0.684l0.018,0.423
		c0.008,0.107,0.068,0.477,0.058,0.656c-0.071,1.1,0.104,0.893,0.104,0.893c0.147,0,0.309-0.886,0.309-0.886
		c0,0.229-0.055,0.913,0.068,1.171c0.147,0.307,0.256-0.053,0.258-0.125c0.039-1.402,0.123-1.035,0.123-1.035
		c0.082,1.137,0.182,1.394,0.363,1.305c0.137-0.066,0.012-1.364,0.012-1.364c0.234,0.771,0.412,0.894,0.412,0.894
		c0.387,0.271,0.147-0.479,0.094-0.627c-0.287-0.789-0.295-1.062-0.295-1.062c0.357,0.708,0.627,0.682,0.627,0.682
		c0.348-0.111-0.305-1.115-0.688-1.596c-0.195-0.245-0.447-0.573-0.52-0.768c-0.12-0.33-0.209-1.391-0.209-1.391
		c-0.037-1.252-0.346-1.796-0.346-1.796c-0.529-0.847-0.629-2.427-0.629-2.427l-0.023-2.668c-0.186-1.82-1.527-1.833-1.527-1.833
		c-1.355-0.202-1.544-0.64-1.544-0.64c-0.287-0.413-0.123-1.205-0.123-1.205c0.238-0.194,0.33-0.708,0.33-0.708
		c0.396-0.303,0.376-0.747,0.194-0.742c-0.147,0.004-0.114-0.118-0.114-0.118c0.247-1.997-1.526-2.099-1.526-2.099h-0.271
		c0,0-1.774,0.102-1.527,2.099c0,0,0.033,0.122-0.115,0.118c-0.182-0.005-0.199,0.439,0.195,0.742c0,0,0.092,0.514,0.33,0.708
		c0,0,0.164,0.792-0.123,1.205c0,0-0.188,0.438-1.544,0.64c0,0-1.343,0.013-1.526,1.833l-0.025,2.668c0,0-0.098,1.58-0.629,2.427
		c0,0-0.308,0.544-0.344,1.796c0,0-0.09,1.061-0.209,1.391c-0.072,0.194-0.324,0.522-0.521,0.768
		c-0.386,0.48-1.035,1.482-0.688,1.596c0,0,0.271,0.026,0.627-0.682c0,0-0.007,0.271-0.293,1.062
		c-0.056,0.147-0.295,0.897,0.092,0.627c0,0,0.179-0.123,0.412-0.894c0,0-0.125,1.298,0.014,1.364
		c0.182,0.089,0.281-0.168,0.363-1.305c0,0,0.084-0.367,0.123,1.035c0.002,0.072,0.108,0.432,0.256,0.125
		c0.125-0.258,0.069-0.941,0.069-1.171c0,0,0.16,0.886,0.31,0.886c0,0,0.176,0.207,0.104-0.893c-0.012-0.18,0.051-0.549,0.059-0.656
		l0.017-0.423c0,0-0.044-0.483-0.044-0.684c0-0.05,0.173-0.708,0.629-1.403c0,0,0.948-1.682,0.887-2.781
		c0,0-0.013-1.049,0.369-1.643c0,0,0.271,2.971,0.087,3.805c0,0-0.853,2.049-0.665,3.578c0.139,1.137,0.406,3.566,0.678,4.525
		c0.142,0.496,0.058,1.748,0.172,2.061c0.051,0.135,0.024,0.26-0.086,0.568c-0.383,1.076-0.334,1.834,0.629,4.689
		c0,0,0.296,0.633,0.146,1.77c0,0-0.615,1.266-0.221,1.291c0,0,0.031,0.084,0.164,0.017c0,0,0.213,0.22,0.443,0.101
		c0,0,0.213,0.17,0.395,0.019c0,0,0.146,0.168,0.359,0.032c0,0,0.279,0.188,0.445-0.016c0,0,0.295,0.066-0.23-1.265
		c0,0-0.201-1.41-0.312-1.687c-0.211-0.526-0.062-1.965-0.017-2.274c0.073-0.515,0.034-1.394-0.099-2.073
		c-0.097-0.488,0.166-1.408,0.263-1.973c0.2-1.191,0.591-4.23,0.542-4.805l0.162,0.057C25.104,27.432,25.177,27.375,25.177,27.375z"
		/>
</g>
</svg>
