<svg xmlns="http://www.w3.org/2000/svg" xmlns:xlink="http://www.w3.org/1999/xlink" width="29" height="28" x="0" y="0" enable-background="new -4.077 -2.664 29 28" overflow="visible" version="1.1" viewBox="-4.077 -2.664 29 28" xml:space="preserve"><path fill="#FFF" d="M4.691,13.613c-0.382,0-0.747-0.178-0.977-0.512c-0.382-0.544-0.233-1.281,0.306-1.65	c1.562-1.078,3.225-1.977,4.848-2.846l0.301-0.16c1.663-0.904,3.367-1.783,5.066-2.613c0.352-0.17,0.691-0.348,1.043-0.531	c1.271-0.656,2.579-1.333,4.004-1.668c0.631-0.153,1.281,0.244,1.424,0.882c0.152,0.636-0.244,1.276-0.885,1.43	c-1.14,0.265-2.31,0.875-3.454,1.465C16,7.6,15.644,7.786,15.288,7.961c-1.668,0.816-3.357,1.682-5,2.572l-0.291,0.16	c-1.571,0.842-3.184,1.709-4.639,2.711C5.154,13.547,4.925,13.613,4.691,13.613z"/><path fill="#FFF" d="M5.246,16.684c-0.249,0-0.503-0.104-0.677-0.315c-0.137-0.16-0.274-0.317-0.422-0.476	c-0.387-0.418-0.819-0.799-1.287-1.203c-0.738-0.651-1.506-1.32-2.106-2.195c-0.885-1.271-0.915-3.098-0.065-4.879	C1.659,5.55,3.44,4.123,5.231,3.976c0.926-0.076,2.543,0.569,3.434,1.389c0.504,0.468,0.753,0.967,0.753,1.478	c0,0.494-0.387,0.891-0.886,0.891c-0.478,0-2.116-1.9-3.159-1.986C4.249,5.654,2.977,6.918,2.29,8.371	c-0.559,1.2-0.59,2.365-0.076,3.111c0.483,0.691,1.135,1.264,1.821,1.869c0.479,0.417,0.972,0.847,1.415,1.335	c0.168,0.171,0.32,0.354,0.482,0.532c0.311,0.376,0.265,0.936-0.117,1.256C5.658,16.615,5.45,16.684,5.246,16.684z"/><path fill="#FFF" d="M6.869,21.913c-0.366,0-0.723-0.089-1.068-0.272c-1.567-0.832-2.04-2.996-2.319-4.291l-0.025-0.086	c-0.098-0.477-0.188-0.982-0.26-1.504c-0.122-0.844,0.427-1.638,1.226-1.762c0.81-0.123,1.547,0.46,1.664,1.309	c0.065,0.445,0.132,0.854,0.224,1.252l0.016,0.092c0.193,0.842,0.36,1.449,0.528,1.824c0.112-0.196,0.249-0.481,0.433-0.883	c0.326-0.781,1.195-1.125,1.934-0.773c0.732,0.355,1.058,1.274,0.722,2.055c-0.539,1.257-1.195,2.473-2.314,2.9	C7.377,21.867,7.118,21.913,6.869,21.913z"/><path fill="#39C2D7" d="M3.877,17.925c-0.483,0-0.967-0.033-1.439-0.109c-1.674-0.27-2.188-1.251-2.346-1.809	c-0.488-1.696,1.094-3.075,1.623-3.528c0.341-0.305,0.6-0.506,0.859-0.691c0-0.038,0-0.076,0-0.115	c-0.025-0.422-0.041-0.85-0.071-1.271c-0.31-5.375,1.089-8.727,4.172-9.976c4.4-1.778,9.386,2.391,11.359,5.769	c1.257,2.132,1.003,3.869,0.575,4.95c-1.246,3.136-5.372,4.657-8.363,5.53l-0.29,0.084C8.151,17.289,5.983,17.925,3.877,17.925z M8.883,3.563c-0.306,0-0.601,0.051-0.875,0.16c-1.883,0.763-2.102,3.938-1.949,6.472c0.026,0.435,0.047,0.875,0.066,1.31	c0.041,0.878,0.082,1.728,0.163,2.554c0.916-0.199,1.831-0.469,2.666-0.713L9.25,13.26c4.619-1.348,5.779-2.729,6.054-3.434	c0.133-0.32,0.234-0.859-0.336-1.834C13.802,6.006,11.014,3.563,8.883,3.563z"/><path fill="#FFF" d="M10.567,19.639c-0.58,0-1.19-0.073-1.821-0.205c-0.509-0.112-0.859-0.565-0.859-1.066	c-0.311-0.312-0.402-0.791-0.214-1.216c0.209-0.455,0.407-0.923,0.596-1.374c0.584-1.381,1.053-2.472,1.643-3.082	c1.227-1.252,2.452-1.152,3.078-0.982c1.165,0.316,2.137,1.396,2.473,2.752c0.351,1.418-0.062,2.84-1.089,3.803	C13.406,19.168,12.088,19.639,10.567,19.639z M9.941,17.416c0.875,0.086,2.111,0.033,2.94-0.742c0.621-0.58,0.555-1.303,0.463-1.682	c-0.143-0.572-0.534-1.068-0.931-1.173c-0.28-0.076-0.601,0.056-0.941,0.401c-0.305,0.316-0.798,1.479-1.195,2.409	C10.17,16.89,10.058,17.151,9.941,17.416z"/></svg>